<svg width="16" height="16" viewBox="0 0 16 16" fill="none" xmlns="http://www.w3.org/2000/svg">
<path d="M6 2.3335V1.3335M3.37377 3.37394L2.66667 2.66683M3.37377 8.66683L2.66667 9.37394M8.66667 3.37394L9.37377 2.66683M2.33333 6.00016H1.33333M10.5763 10.7932L8.91516 13.8782C8.72538 14.2306 8.6305 14.4068 8.51633 14.4514C8.41726 14.4901 8.30568 14.4792 8.21598 14.422C8.11263 14.3561 8.05371 14.1649 7.93587 13.7823L5.63013 6.297C5.53387 5.9845 5.48574 5.82825 5.52446 5.72272C5.55819 5.6308 5.63064 5.55836 5.72256 5.52463C5.82809 5.4859 5.98434 5.53403 6.29683 5.63029L13.7821 7.93606C14.1647 8.0539 14.356 8.11282 14.4218 8.21617C14.479 8.30587 14.4899 8.41745 14.4512 8.51652C14.4066 8.63069 14.2304 8.72557 13.878 8.91535L10.793 10.5765C10.7407 10.6047 10.7145 10.6188 10.6916 10.6369C10.6712 10.653 10.6528 10.6714 10.6367 10.6917C10.6186 10.7147 10.6045 10.7408 10.5763 10.7932Z" stroke="#BBBBBB" stroke-linecap="round" stroke-linejoin="round"/>
</svg>
