<svg width="32" height="32" viewBox="0 0 32 32" fill="none" xmlns="http://www.w3.org/2000/svg">
<path d="M26.6666 16.6667V9.06667C26.6666 6.82646 26.6666 5.70636 26.2307 4.85071C25.8472 4.09806 25.2353 3.48614 24.4826 3.10265C23.627 2.66667 22.5069 2.66667 20.2666 2.66667H11.7333C9.4931 2.66667 8.373 2.66667 7.51735 3.10265C6.7647 3.48614 6.15278 4.09806 5.76929 4.85071C5.33331 5.70636 5.33331 6.82646 5.33331 9.06667V22.9333C5.33331 25.1735 5.33331 26.2937 5.76929 27.1493C6.15278 27.9019 6.7647 28.5139 7.51735 28.8974C8.373 29.3333 9.49304 29.3333 11.7331 29.3333H16.6666M18.6666 14.6667H10.6666M13.3333 20H10.6666M21.3333 9.33334H10.6666M24 29.3333V21.3333M24 21.3333L20.0003 25.333M24 21.3333L27.9997 25.333" stroke="#015235" stroke-width="2" stroke-linecap="round" stroke-linejoin="round"/>
</svg>
