<svg width="32" height="32" viewBox="0 0 32 32" fill="none" xmlns="http://www.w3.org/2000/svg">
<path d="M26.6673 16.6667V9.06667C26.6673 6.82646 26.6673 5.70636 26.2313 4.85071C25.8479 4.09806 25.2359 3.48614 24.4833 3.10265C23.6276 2.66667 22.5075 2.66667 20.2673 2.66667H11.734C9.49377 2.66667 8.37367 2.66667 7.51802 3.10265C6.76537 3.48614 6.15345 4.09806 5.76996 4.85071C5.33398 5.70636 5.33398 6.82646 5.33398 9.06667V22.9333C5.33398 25.1735 5.33398 26.2937 5.76996 27.1493C6.15345 27.9019 6.76537 28.5139 7.51802 28.8974C8.37367 29.3333 9.49371 29.3333 11.7338 29.3333H16.6673M18.6673 14.6667H10.6673M13.334 20H10.6673M21.334 9.33334H10.6673M24.0007 29.3333V21.3333M24.0007 21.3333L20.001 25.333M24.0007 21.3333L28.0003 25.333" stroke="#187AE8" stroke-width="2" stroke-linecap="round" stroke-linejoin="round"/>
</svg>
