<svg width="20" height="20" viewBox="0 0 20 20" fill="none" xmlns="http://www.w3.org/2000/svg">
<path d="M9.41826 18.0124C9.60275 18.12 9.695 18.1739 9.82519 18.2018C9.92622 18.2234 10.0736 18.2234 10.1747 18.2018C10.3048 18.1739 10.3971 18.12 10.5816 18.0124C12.205 17.0653 16.6666 14.0904 16.6666 10V6.83335C16.6666 5.93844 16.6666 5.49098 16.5286 5.17335C16.3884 4.85052 16.2487 4.67878 15.9612 4.47577C15.6783 4.27604 15.1238 4.1607 14.0147 3.93003C12.7923 3.6758 11.8535 3.21671 10.9952 2.55278C10.5837 2.23441 10.3779 2.07522 10.2169 2.0318C10.047 1.98598 9.95289 1.98598 9.78297 2.0318C9.62194 2.07522 9.41616 2.23441 9.0046 2.55278C8.14635 3.21671 7.20758 3.6758 5.98517 3.93003C4.87606 4.1607 4.32151 4.27604 4.03862 4.47577C3.7511 4.67878 3.61141 4.85052 3.4712 5.17335C3.33325 5.49098 3.33325 5.93844 3.33325 6.83335V10C3.33325 14.0904 7.79489 17.0653 9.41826 18.0124Z" fill="#797979" stroke="#797979" stroke-width="2" stroke-linecap="round" stroke-linejoin="round"/>
<path d="M12.104 11.536C12.104 11.84 12.024 12.1013 11.864 12.32C11.7093 12.5387 11.4987 12.7067 11.232 12.824C10.9653 12.9413 10.672 13 10.352 13H7.64V7.32H10.568C10.8347 7.32 11.064 7.392 11.256 7.536C11.4533 7.67467 11.6027 7.856 11.704 8.08C11.8107 8.29867 11.864 8.528 11.864 8.768C11.864 9.04533 11.792 9.30667 11.648 9.552C11.5093 9.792 11.3093 9.97067 11.048 10.088C11.3733 10.184 11.6293 10.36 11.816 10.616C12.008 10.8667 12.104 11.1733 12.104 11.536ZM11.184 11.368C11.184 11.208 11.1493 11.064 11.08 10.936C11.016 10.8027 10.9253 10.696 10.808 10.616C10.696 10.5307 10.5627 10.488 10.408 10.488H8.536V12.224H10.352C10.512 12.224 10.6533 12.1867 10.776 12.112C10.904 12.032 11.0027 11.928 11.072 11.8C11.1467 11.6667 11.184 11.5227 11.184 11.368ZM8.536 8.096V9.768H10.184C10.3333 9.768 10.4667 9.73333 10.584 9.664C10.7013 9.58933 10.7947 9.49067 10.864 9.368C10.9333 9.24 10.968 9.096 10.968 8.936C10.968 8.77067 10.936 8.62667 10.872 8.504C10.808 8.376 10.72 8.27733 10.608 8.208C10.5013 8.13333 10.376 8.096 10.232 8.096H8.536Z" fill="white"/>
</svg>
