<svg width="21" height="20" viewBox="0 0 21 20" fill="none" xmlns="http://www.w3.org/2000/svg">
<path d="M9.75151 18.0124C9.93601 18.12 10.0283 18.1739 10.1584 18.2018C10.2595 18.2234 10.4069 18.2234 10.5079 18.2018C10.6381 18.1739 10.7303 18.12 10.9148 18.0124C12.5382 17.0653 16.9998 14.0904 16.9998 10V6.83335C16.9998 5.93844 16.9998 5.49098 16.8619 5.17335C16.7217 4.85052 16.582 4.67878 16.2945 4.47577C16.0116 4.27604 15.457 4.1607 14.3479 3.93003C13.1255 3.6758 12.1867 3.21671 11.3285 2.55278C10.9169 2.23441 10.7111 2.07522 10.5501 2.0318C10.3802 1.98598 10.2861 1.98598 10.1162 2.0318C9.95519 2.07522 9.74941 2.23441 9.33786 2.55278C8.4796 3.21671 7.54084 3.6758 6.31842 3.93003C5.20932 4.1607 4.65476 4.27604 4.37188 4.47577C4.08435 4.67878 3.94466 4.85052 3.80445 5.17335C3.6665 5.49098 3.6665 5.93844 3.6665 6.83335V10C3.6665 14.0904 8.12814 17.0653 9.75151 18.0124Z" fill="#CBB15C" stroke="#CBB15C" stroke-width="2" stroke-linecap="round" stroke-linejoin="round"/>
<path d="M12.4373 11.536C12.4373 11.84 12.3573 12.1013 12.1973 12.32C12.0426 12.5387 11.8319 12.7067 11.5653 12.824C11.2986 12.9413 11.0053 13 10.6853 13H7.97325V7.32H10.9013C11.1679 7.32 11.3973 7.392 11.5893 7.536C11.7866 7.67467 11.9359 7.856 12.0373 8.08C12.1439 8.29867 12.1973 8.528 12.1973 8.768C12.1973 9.04533 12.1253 9.30667 11.9813 9.552C11.8426 9.792 11.6426 9.97067 11.3813 10.088C11.7066 10.184 11.9626 10.36 12.1493 10.616C12.3413 10.8667 12.4373 11.1733 12.4373 11.536ZM11.5173 11.368C11.5173 11.208 11.4826 11.064 11.4133 10.936C11.3493 10.8027 11.2586 10.696 11.1413 10.616C11.0293 10.5307 10.8959 10.488 10.7413 10.488H8.86925V12.224H10.6853C10.8453 12.224 10.9866 12.1867 11.1093 12.112C11.2373 12.032 11.3359 11.928 11.4053 11.8C11.4799 11.6667 11.5173 11.5227 11.5173 11.368ZM8.86925 8.096V9.768H10.5173C10.6666 9.768 10.7999 9.73333 10.9173 9.664C11.0346 9.58933 11.1279 9.49067 11.1973 9.368C11.2666 9.24 11.3013 9.096 11.3013 8.936C11.3013 8.77067 11.2693 8.62667 11.2053 8.504C11.1413 8.376 11.0533 8.27733 10.9413 8.208C10.8346 8.13333 10.7093 8.096 10.5653 8.096H8.86925Z" fill="white"/>
</svg>
