<svg width="20" height="20" viewBox="0 0 20 20" fill="none" xmlns="http://www.w3.org/2000/svg">
<path d="M5.75008 9.537V11.8518M5.75008 9.537V3.98144C5.75008 3.21438 6.38434 2.59255 7.16675 2.59255C7.94915 2.59255 8.58341 3.21438 8.58341 3.98144M5.75008 9.537C5.75008 8.76993 5.11582 8.14811 4.33341 8.14811C3.55101 8.14811 2.91675 8.76993 2.91675 9.537V11.3888C2.91675 15.2242 6.08806 18.3333 10.0001 18.3333C13.9121 18.3333 17.0834 15.2242 17.0834 11.3888V6.75922C17.0834 5.99216 16.4492 5.37033 15.6667 5.37033C14.8843 5.37033 14.2501 5.99216 14.2501 6.75922M8.58341 3.98144V9.07403M8.58341 3.98144V3.05551C8.58341 2.28845 9.21768 1.66663 10.0001 1.66663C10.7825 1.66663 11.4167 2.28845 11.4167 3.05551V3.98144M11.4167 3.98144V9.07403M11.4167 3.98144C11.4167 3.21438 12.051 2.59255 12.8334 2.59255C13.6158 2.59255 14.2501 3.21438 14.2501 3.98144V6.75922M14.2501 6.75922V9.07403" stroke="#EF0000" stroke-linecap="round" stroke-linejoin="round"/>
</svg>
