<svg width="17" height="16" viewBox="0 0 17 16" fill="none" xmlns="http://www.w3.org/2000/svg">
<path d="M5.09992 7.62962V9.48148M5.09992 7.62962V3.18518C5.09992 2.57153 5.60733 2.07407 6.23325 2.07407C6.85917 2.07407 7.36659 2.57153 7.36659 3.18518M5.09992 7.62962C5.09992 7.01597 4.59251 6.51851 3.96659 6.51851C3.34066 6.51851 2.83325 7.01597 2.83325 7.62962V9.11111C2.83325 12.1794 5.37031 14.6667 8.49992 14.6667C11.6295 14.6667 14.1666 12.1794 14.1666 9.11111V5.4074C14.1666 4.79375 13.6592 4.29629 13.0333 4.29629C12.4073 4.29629 11.8999 4.79375 11.8999 5.4074M7.36659 3.18518V7.25925M7.36659 3.18518V2.44444C7.36659 1.83079 7.874 1.33333 8.49992 1.33333C9.12584 1.33333 9.63325 1.83079 9.63325 2.44444V3.18518M9.63325 3.18518V7.25925M9.63325 3.18518C9.63325 2.57153 10.1407 2.07407 10.7666 2.07407C11.3925 2.07407 11.8999 2.57153 11.8999 3.18518V5.4074M11.8999 5.4074V7.25925" stroke="#BFBFBF" stroke-linecap="round" stroke-linejoin="round"/>
</svg>
