<svg width="16" height="16" viewBox="0 0 16 16" fill="none" xmlns="http://www.w3.org/2000/svg">
<path d="M7.33301 7.33333H4.13301C3.38627 7.33333 3.0129 7.33333 2.72769 7.47866C2.4768 7.60649 2.27283 7.81046 2.145 8.06135C1.99967 8.34656 1.99967 8.71993 1.99967 9.46667V14M13.9997 14V4.13333C13.9997 3.3866 13.9997 3.01323 13.8544 2.72801C13.7265 2.47713 13.5225 2.27316 13.2717 2.14532C12.9864 2 12.6131 2 11.8663 2H9.46634C8.7196 2 8.34624 2 8.06102 2.14532C7.81014 2.27316 7.60616 2.47713 7.47833 2.72801C7.33301 3.01323 7.33301 3.3866 7.33301 4.13333V14M14.6663 14H1.33301M9.66634 4.66667H11.6663M9.66634 7.33333H11.6663M9.66634 10H11.6663" stroke="black" stroke-opacity="0.5" stroke-linecap="round" stroke-linejoin="round"/>
</svg>
