<svg width="16" height="16" viewBox="0 0 16 16" fill="none" xmlns="http://www.w3.org/2000/svg">
<g clip-path="url(#clip0_533_5529)">
<path d="M1.91734 12.0771C1.94797 11.8015 1.96329 11.6636 2.00499 11.5348C2.04199 11.4205 2.09427 11.3117 2.16041 11.2114C2.23495 11.0984 2.33301 11.0003 2.52913 10.8042L11.3333 2.00004C12.0697 1.26366 13.2636 1.26366 14 2.00004C14.7364 2.73642 14.7364 3.93033 14 4.66671L5.1958 13.4709C4.99968 13.667 4.90162 13.7651 4.78857 13.8396C4.68828 13.9058 4.57951 13.958 4.46521 13.995C4.33638 14.0367 4.19855 14.0521 3.92289 14.0827L1.66665 14.3334L1.91734 12.0771Z" stroke="black" stroke-opacity="0.5" stroke-width="1.5" stroke-linecap="round" stroke-linejoin="round"/>
</g>
<defs>
<clipPath id="clip0_533_5529">
<rect width="16" height="16" fill="white"/>
</clipPath>
</defs>
</svg>
