<svg width="33" height="32" viewBox="0 0 33 32" fill="none" xmlns="http://www.w3.org/2000/svg">
<path d="M3.33301 15.9998H29.9997M3.33301 15.9998C3.33301 23.3636 9.30254 29.3332 16.6663 29.3332M3.33301 15.9998C3.33301 8.63604 9.30254 2.6665 16.6663 2.6665M29.9997 15.9998C29.9997 23.3636 24.0301 29.3332 16.6663 29.3332M29.9997 15.9998C29.9997 8.63604 24.0301 2.6665 16.6663 2.6665M16.6663 2.6665C20.0014 6.31764 21.8967 11.0559 21.9997 15.9998C21.8967 20.9438 20.0014 25.682 16.6663 29.3332M16.6663 2.6665C13.3313 6.31764 11.436 11.0559 11.333 15.9998C11.436 20.9438 13.3313 25.682 16.6663 29.3332" stroke="black" stroke-opacity="0.5" stroke-width="1.5" stroke-linecap="round" stroke-linejoin="round"/>
</svg>
