<svg width="16" height="16" viewBox="0 0 16 16" fill="none" xmlns="http://www.w3.org/2000/svg">
<g clip-path="url(#clip0_582_10601)">
<path d="M1.33398 7.99988L7.76214 11.214C7.84959 11.2577 7.89332 11.2795 7.93919 11.2882C7.97981 11.2958 8.02149 11.2958 8.06212 11.2882C8.10798 11.2795 8.15171 11.2577 8.23917 11.214L14.6673 7.99988M1.33398 11.3332L7.76214 14.5473C7.84959 14.591 7.89332 14.6129 7.93919 14.6215C7.97981 14.6291 8.02149 14.6291 8.06212 14.6215C8.10798 14.6129 8.15171 14.591 8.23917 14.5473L14.6673 11.3332M1.33398 4.66655L7.76214 1.45247C7.84959 1.40874 7.89332 1.38688 7.93919 1.37827C7.97981 1.37065 8.02149 1.37065 8.06212 1.37827C8.10798 1.38688 8.15171 1.40874 8.23917 1.45247L14.6673 4.66655L8.23917 7.88062C8.15171 7.92435 8.10798 7.94621 8.06212 7.95482C8.02149 7.96244 7.97981 7.96244 7.93919 7.95482C7.89332 7.94621 7.84959 7.92435 7.76214 7.88062L1.33398 4.66655Z" stroke="white" stroke-width="1.5" stroke-linecap="round" stroke-linejoin="round"/>
</g>
<defs>
<clipPath id="clip0_582_10601">
<rect width="16" height="16" fill="white"/>
</clipPath>
</defs>
</svg>
