<svg width="33" height="32" viewBox="0 0 33 32" fill="none" xmlns="http://www.w3.org/2000/svg">
<path d="M26.0006 28V20M22.0006 24H30.0006M16.6673 20H11.334C8.84896 20 7.60645 20 6.62634 20.406C5.31952 20.9473 4.28126 21.9855 3.73996 23.2924C3.33398 24.2725 3.33398 25.515 3.33398 28M21.334 4.38768C23.2885 5.17886 24.6673 7.09508 24.6673 9.33333C24.6673 11.5716 23.2885 13.4878 21.334 14.279M18.6673 9.33333C18.6673 12.2789 16.2795 14.6667 13.334 14.6667C10.3885 14.6667 8.00065 12.2789 8.00065 9.33333C8.00065 6.38781 10.3885 4 13.334 4C16.2795 4 18.6673 6.38781 18.6673 9.33333Z" stroke="black" stroke-opacity="0.5" stroke-width="1.5" stroke-linecap="round" stroke-linejoin="round"/>
</svg>
