<svg width="20" height="20" viewBox="0 0 20 20" fill="none" xmlns="http://www.w3.org/2000/svg">
<path d="M9.41826 18.0124C9.60275 18.12 9.695 18.1739 9.82519 18.2018C9.92622 18.2234 10.0736 18.2234 10.1747 18.2018C10.3048 18.1739 10.3971 18.12 10.5816 18.0124C12.205 17.0653 16.6666 14.0904 16.6666 10V6.83335C16.6666 5.93844 16.6666 5.49098 16.5286 5.17335C16.3884 4.85052 16.2487 4.67878 15.9612 4.47577C15.6783 4.27604 15.1238 4.1607 14.0147 3.93003C12.7923 3.6758 11.8535 3.21671 10.9952 2.55278C10.5837 2.23441 10.3779 2.07522 10.2169 2.0318C10.047 1.98598 9.95289 1.98598 9.78297 2.0318C9.62194 2.07522 9.41616 2.23441 9.0046 2.55278C8.14635 3.21671 7.20758 3.6758 5.98517 3.93003C4.87606 4.1607 4.32151 4.27604 4.03862 4.47577C3.7511 4.67878 3.61141 4.85052 3.4712 5.17335C3.33325 5.49098 3.33325 5.93844 3.33325 6.83335V10C3.33325 14.0904 7.79489 17.0653 9.41826 18.0124Z" fill="#953E68" stroke="#953E68" stroke-width="2" stroke-linecap="round" stroke-linejoin="round"/>
<path d="M5.64 12V6.32H8.024C8.28 6.32 8.51467 6.37333 8.728 6.48C8.94133 6.58667 9.128 6.728 9.288 6.904C9.448 7.08 9.57067 7.27733 9.656 7.496C9.74133 7.71467 9.784 7.93867 9.784 8.168C9.784 8.48267 9.712 8.784 9.568 9.072C9.42933 9.35467 9.22933 9.584 8.968 9.76C8.712 9.936 8.41333 10.024 8.072 10.024H6.536V12H5.64ZM6.536 9.232H8.016C8.18667 9.232 8.336 9.18667 8.464 9.096C8.592 9 8.69067 8.872 8.76 8.712C8.83467 8.552 8.872 8.37067 8.872 8.168C8.872 7.96 8.82933 7.776 8.744 7.616C8.65867 7.456 8.54667 7.33333 8.408 7.248C8.27467 7.15733 8.128 7.112 7.968 7.112H6.536V9.232ZM10.3044 12C10.3044 11.776 10.323 11.5707 10.3604 11.384C10.3977 11.192 10.4617 11.0107 10.5524 10.84C10.6484 10.6693 10.779 10.5093 10.9444 10.36C11.115 10.2053 11.331 10.0587 11.5924 9.92C11.779 9.81333 11.955 9.72 12.1204 9.64C12.2857 9.55467 12.4324 9.472 12.5604 9.392C12.6884 9.30667 12.787 9.216 12.8564 9.12C12.931 9.024 12.9684 8.91467 12.9684 8.792C12.9684 8.67467 12.9364 8.56533 12.8724 8.464C12.8084 8.36267 12.7124 8.28267 12.5844 8.224C12.4564 8.16 12.3017 8.128 12.1204 8.128C11.9764 8.128 11.843 8.14667 11.7204 8.184C11.603 8.22133 11.4937 8.272 11.3924 8.336C11.2964 8.39467 11.2084 8.46133 11.1284 8.536C11.0484 8.60533 10.979 8.67467 10.9204 8.744L10.3684 8.112C10.4217 8.048 10.5044 7.976 10.6164 7.896C10.7337 7.81067 10.8724 7.728 11.0324 7.648C11.1977 7.56267 11.3844 7.49333 11.5924 7.44C11.8004 7.38133 12.027 7.352 12.2724 7.352C12.619 7.352 12.915 7.41067 13.1604 7.528C13.4057 7.64 13.5924 7.79733 13.7204 8C13.8537 8.19733 13.9204 8.42133 13.9204 8.672C13.9204 8.86933 13.8804 9.04267 13.8004 9.192C13.7257 9.34133 13.627 9.47467 13.5044 9.592C13.3817 9.704 13.251 9.80267 13.1124 9.888C12.979 9.968 12.8537 10.04 12.7364 10.104C12.5284 10.2053 12.347 10.2987 12.1924 10.384C12.043 10.4693 11.915 10.5547 11.8084 10.64C11.7017 10.72 11.6137 10.8053 11.5444 10.896C11.475 10.9813 11.4164 11.0853 11.3684 11.208H14.0084V12H10.3044Z" fill="white"/>
</svg>
