<svg width="17" height="16" viewBox="0 0 17 16" fill="none" xmlns="http://www.w3.org/2000/svg">
<path d="M15.1666 14V12.6667C15.1666 11.4241 14.3167 10.38 13.1666 10.084M10.8333 2.19384C11.8105 2.58943 12.4999 3.54754 12.4999 4.66667C12.4999 5.78579 11.8105 6.7439 10.8333 7.13949M11.8333 14C11.8333 12.7575 11.8333 12.1362 11.6303 11.6462C11.3596 10.9928 10.8405 10.4736 10.1871 10.203C9.69702 10 9.07576 10 7.83325 10H5.83325C4.59074 10 3.96949 10 3.47943 10.203C2.82602 10.4736 2.30689 10.9928 2.03624 11.6462C1.83325 12.1362 1.83325 12.7575 1.83325 14M9.49992 4.66667C9.49992 6.13943 8.30601 7.33333 6.83325 7.33333C5.36049 7.33333 4.16659 6.13943 4.16659 4.66667C4.16659 3.19391 5.36049 2 6.83325 2C8.30601 2 9.49992 3.19391 9.49992 4.66667Z" stroke="#BBBBBB" stroke-linecap="round" stroke-linejoin="round"/>
</svg>
