<svg width="20" height="20" viewBox="0 0 20 20" fill="none" xmlns="http://www.w3.org/2000/svg">
<path d="M9.41826 18.0124C9.60275 18.12 9.695 18.1739 9.82519 18.2018C9.92622 18.2234 10.0736 18.2234 10.1747 18.2018C10.3048 18.1739 10.3971 18.12 10.5816 18.0124C12.205 17.0653 16.6666 14.0904 16.6666 10V6.83335C16.6666 5.93844 16.6666 5.49098 16.5286 5.17335C16.3884 4.85052 16.2487 4.67878 15.9612 4.47577C15.6783 4.27604 15.1238 4.1607 14.0147 3.93003C12.7923 3.6758 11.8535 3.21671 10.9952 2.55278C10.5837 2.23441 10.3779 2.07522 10.2169 2.0318C10.047 1.98598 9.95289 1.98598 9.78297 2.0318C9.62194 2.07522 9.41616 2.23441 9.0046 2.55278C8.14635 3.21671 7.20758 3.6758 5.98517 3.93003C4.87606 4.1607 4.32151 4.27604 4.03862 4.47577C3.7511 4.67878 3.61141 4.85052 3.4712 5.17335C3.33325 5.49098 3.33325 5.93844 3.33325 6.83335V10C3.33325 14.0904 7.79489 17.0653 9.41826 18.0124Z" fill="#953E68" stroke="#953E68" stroke-width="2" stroke-linecap="round" stroke-linejoin="round"/>
<path d="M6.64 12V6.32H9.024C9.28 6.32 9.51467 6.37333 9.728 6.48C9.94133 6.58667 10.128 6.728 10.288 6.904C10.448 7.08 10.5707 7.27733 10.656 7.496C10.7413 7.71467 10.784 7.93867 10.784 8.168C10.784 8.48267 10.712 8.784 10.568 9.072C10.4293 9.35467 10.2293 9.584 9.968 9.76C9.712 9.936 9.41333 10.024 9.072 10.024H7.536V12H6.64ZM7.536 9.232H9.016C9.18667 9.232 9.336 9.18667 9.464 9.096C9.592 9 9.69067 8.872 9.76 8.712C9.83467 8.552 9.872 8.37067 9.872 8.168C9.872 7.96 9.82933 7.776 9.744 7.616C9.65867 7.456 9.54667 7.33333 9.408 7.248C9.27467 7.15733 9.128 7.112 8.968 7.112H7.536V9.232ZM14.5604 11.208V12H11.5044V11.208H12.6404V8.416C12.5924 8.48 12.5177 8.54667 12.4164 8.616C12.315 8.68533 12.2004 8.752 12.0724 8.816C11.9497 8.87467 11.8244 8.92267 11.6964 8.96C11.5684 8.99733 11.451 9.016 11.3444 9.016V8.192C11.451 8.192 11.5737 8.16 11.7124 8.096C11.851 8.032 11.987 7.95733 12.1204 7.872C12.259 7.78133 12.3764 7.696 12.4724 7.616C12.5684 7.53067 12.6244 7.46933 12.6404 7.432H13.5444V11.208H14.5604Z" fill="white"/>
</svg>
