<svg width="20" height="20" viewBox="0 0 20 20" fill="none" xmlns="http://www.w3.org/2000/svg">
<path d="M0.4 10C0.4 4.69813 4.69814 0.4 10 0.4C15.3019 0.4 19.6 4.69813 19.6 10C19.6 15.3019 15.3019 19.6 10 19.6C4.69814 19.6 0.4 15.3019 0.4 10ZM3.34976 12.498C3.34976 13.4096 4.08895 14.1479 4.99969 14.1479C5.91118 14.1479 6.64961 13.4095 6.64961 12.498C6.64961 11.5865 5.91118 10.848 4.99969 10.848C4.08895 10.848 3.34976 11.5863 3.34976 12.498ZM3.34976 6.87332C3.34976 7.78495 4.08895 8.52324 4.99969 8.52324C5.91118 8.52324 6.64961 7.78482 6.64961 6.87332C6.64961 5.96182 5.91118 5.2234 4.99969 5.2234C4.08895 5.2234 3.34976 5.96169 3.34976 6.87332ZM8.34945 16.2477C8.34945 17.1594 9.08863 17.8977 9.99937 17.8977C10.9109 17.8977 11.6493 17.1592 11.6493 16.2477C11.6493 15.3362 10.9109 14.5978 9.99937 14.5978C9.08863 14.5978 8.34945 15.3361 8.34945 16.2477ZM8.34945 9.99812C8.34945 10.9097 9.08863 11.648 9.99937 11.648C10.9109 11.648 11.6493 10.9096 11.6493 9.99812C11.6493 9.08663 10.9109 8.3482 9.99937 8.3482C9.08863 8.3482 8.34945 9.0865 8.34945 9.99812ZM8.34945 3.74852C8.34945 4.66014 9.08863 5.39844 9.99937 5.39844C10.9109 5.39844 11.6493 4.66001 11.6493 3.74852C11.6493 2.83702 10.9109 2.09859 9.99937 2.09859C9.08863 2.09859 8.34945 2.83689 8.34945 3.74852ZM13.3491 12.498C13.3491 13.4096 14.0883 14.1479 14.9991 14.1479C15.9106 14.1479 16.649 13.4095 16.649 12.498C16.649 11.5865 15.9106 10.848 14.9991 10.848C14.0883 10.848 13.3491 11.5863 13.3491 12.498ZM13.3491 6.87332C13.3491 7.78495 14.0883 8.52324 14.9991 8.52324C15.9106 8.52324 16.649 7.78482 16.649 6.87332C16.649 5.96182 15.9106 5.2234 14.9991 5.2234C14.0883 5.2234 13.3491 5.96169 13.3491 6.87332Z" stroke="black" stroke-opacity="0.25" stroke-width="0.8"/>
</svg>
