<svg width="20" height="20" viewBox="0 0 20 20" fill="none" xmlns="http://www.w3.org/2000/svg">
<g clip-path="url(#clip0_759_7809)">
<path d="M10 0.898438C4.9775 0.898438 0.898438 4.9775 0.898438 10C0.898438 15.0225 4.9775 19.1016 10 19.1016C15.0225 19.1016 19.1016 15.0225 19.1016 10C19.1016 4.9775 15.0225 0.898438 10 0.898438ZM10 1.60156C14.6425 1.60156 18.3984 5.3575 18.3984 10C18.3984 14.6425 14.6425 18.3984 10 18.3984C5.3575 18.3984 1.60156 14.6425 1.60156 10C1.60156 5.3575 5.3575 1.60156 10 1.60156ZM6.25906 3.67891C5.45953 3.68293 4.27273 4.84598 3.42332 6.52914C2.45262 8.45281 2.29027 10.3274 3.0607 10.7162C3.83109 11.1049 4.0293 9.22047 5 7.29684C5.9707 5.37312 7.34633 4.13871 6.57594 3.74996C6.47961 3.70137 6.37328 3.67832 6.25906 3.67891Z" fill="black" fill-opacity="0.25"/>
</g>
<defs>
<clipPath id="clip0_759_7809">
<rect width="20" height="20" fill="white"/>
</clipPath>
</defs>
</svg>
