<svg width="20" height="20" viewBox="0 0 20 20" fill="none" xmlns="http://www.w3.org/2000/svg">
<g clip-path="url(#clip0_759_8203)">
<path d="M10 0.898438C4.9775 0.898438 0.898438 4.9775 0.898438 10C0.898438 15.0225 4.9775 19.1016 10 19.1016C15.0225 19.1016 19.1016 15.0225 19.1016 10C19.1016 4.9775 15.0225 0.898438 10 0.898438ZM10 1.60156C14.6425 1.60156 18.3984 5.3575 18.3984 10C18.3984 14.6425 14.6425 18.3984 10 18.3984C5.3575 18.3984 1.60156 14.6425 1.60156 10C1.60156 5.3575 5.3575 1.60156 10 1.60156ZM6.25906 3.67891C5.45953 3.68293 4.27273 4.84598 3.42332 6.52914C2.45262 8.45281 2.29027 10.3274 3.0607 10.7162C3.83109 11.1049 4.0293 9.22047 5 7.29684C5.9707 5.37312 7.34633 4.13871 6.57594 3.74996C6.47961 3.70137 6.37328 3.67832 6.25906 3.67891Z" fill="#007A31"/>
</g>
<path d="M7.74 14V6.9H10.88C11.2067 6.9 11.5067 6.96667 11.78 7.1C12.06 7.23333 12.3 7.41333 12.5 7.64C12.7067 7.86667 12.8633 8.12 12.97 8.4C13.0833 8.68 13.14 8.96667 13.14 9.26C13.14 9.56 13.0867 9.85 12.98 10.13C12.88 10.4033 12.7333 10.6433 12.54 10.85C12.3467 11.0567 12.12 11.2167 11.86 11.33L13.48 14H11.96L10.5 11.62H9.12V14H7.74ZM9.12 10.41H10.85C11.0233 10.41 11.1767 10.36 11.31 10.26C11.4433 10.1533 11.55 10.0133 11.63 9.84C11.71 9.66667 11.75 9.47333 11.75 9.26C11.75 9.03333 11.7033 8.83667 11.61 8.67C11.5167 8.49667 11.3967 8.36 11.25 8.26C11.11 8.16 10.9567 8.11 10.79 8.11H9.12V10.41Z" fill="#007A31"/>
<defs>
<clipPath id="clip0_759_8203">
<rect width="20" height="20" fill="white"/>
</clipPath>
</defs>
</svg>
