<svg width="13" height="14" viewBox="0 0 13 14" fill="none" xmlns="http://www.w3.org/2000/svg">
<path d="M9.83366 5.66667V4.33333C9.83366 2.49238 8.34127 1 6.50033 1C4.65938 1 3.16699 2.49238 3.16699 4.33333V5.66667M6.50033 8.66667V10M4.36699 13H8.63366C9.75376 13 10.3138 13 10.7416 12.782C11.118 12.5903 11.4239 12.2843 11.6157 11.908C11.8337 11.4802 11.8337 10.9201 11.8337 9.8V8.86667C11.8337 7.74656 11.8337 7.18651 11.6157 6.75869C11.4239 6.38236 11.118 6.0764 10.7416 5.88465C10.3138 5.66667 9.75376 5.66667 8.63366 5.66667H4.36699C3.24689 5.66667 2.68683 5.66667 2.25901 5.88465C1.88269 6.0764 1.57673 6.38236 1.38498 6.75869C1.16699 7.18651 1.16699 7.74656 1.16699 8.86667V9.8C1.16699 10.9201 1.16699 11.4802 1.38498 11.908C1.57673 12.2843 1.88269 12.5903 2.25901 12.782C2.68683 13 3.24689 13 4.36699 13Z" stroke="#EF0000" stroke-opacity="0.5" stroke-width="1.5" stroke-linecap="round" stroke-linejoin="round"/>
</svg>
