<svg width="10" height="11" viewBox="0 0 10 11" fill="none" xmlns="http://www.w3.org/2000/svg">
<path d="M7.5 4.5V3.5C7.5 2.11929 6.38071 1 5 1C3.61929 1 2.5 2.11929 2.5 3.5V4.5M5 6.75V7.75M3.4 10H6.6C7.44008 10 7.86012 10 8.18099 9.83651C8.46323 9.6927 8.6927 9.46323 8.83651 9.18099C9 8.86012 9 8.44008 9 7.6V6.9C9 6.05992 9 5.63988 8.83651 5.31901C8.6927 5.03677 8.46323 4.8073 8.18099 4.66349C7.86012 4.5 7.44008 4.5 6.6 4.5H3.4C2.55992 4.5 2.13988 4.5 1.81901 4.66349C1.53677 4.8073 1.3073 5.03677 1.16349 5.31901C1 5.63988 1 6.05992 1 6.9V7.6C1 8.44008 1 8.86012 1.16349 9.18099C1.3073 9.46323 1.53677 9.6927 1.81901 9.83651C2.13988 10 2.55992 10 3.4 10Z" stroke="#EF0000" stroke-opacity="0.5" stroke-linecap="round" stroke-linejoin="round"/>
</svg>
