<svg width="24" height="25" viewBox="0 0 24 25" fill="none" xmlns="http://www.w3.org/2000/svg">
<path d="M11.302 22.1149C11.5234 22.2441 11.6341 22.3087 11.7903 22.3422C11.9116 22.3682 12.0884 22.3682 12.2097 22.3422C12.3659 22.3087 12.4766 22.2441 12.698 22.1149C14.646 20.9785 20 17.4085 20 12.5001V8.70007C20 7.62617 20 7.08923 19.8345 6.70807C19.6662 6.32067 19.4986 6.11458 19.1536 5.87097C18.8141 5.63129 18.1486 5.49289 16.8177 5.21609C15.3508 4.91101 14.2243 4.3601 13.1944 3.56339C12.7005 3.18133 12.4536 2.99031 12.2603 2.93821C12.0564 2.88323 11.9436 2.88323 11.7397 2.93821C11.5464 2.99031 11.2995 3.18134 10.8056 3.56339C9.77572 4.36011 8.6492 4.91101 7.1823 5.21609C5.85137 5.49289 5.18591 5.63129 4.84645 5.87097C4.50142 6.11458 4.33379 6.32067 4.16554 6.70807C4 7.08923 4 7.62617 4 8.70007V12.5001C4 17.4085 9.35396 20.9785 11.302 22.1149Z" fill="#BBBBBB" stroke="#BBBBBB" stroke-width="2" stroke-linecap="round" stroke-linejoin="round"/>
<path d="M6.8 16V8.9H9.89C10.21 8.9 10.5033 8.96667 10.77 9.1C11.0367 9.23333 11.2667 9.41 11.46 9.63C11.66 9.85 11.8133 10.0967 11.92 10.37C12.0333 10.6433 12.09 10.9233 12.09 11.21C12.09 11.5233 12.0333 11.8233 11.92 12.11C11.8067 12.3967 11.6433 12.6433 11.43 12.85C11.2233 13.0567 10.98 13.2067 10.7 13.3L12.37 16H11.11L9.57 13.53H7.92V16H6.8ZM7.92 12.54H9.88C10.0867 12.54 10.27 12.48 10.43 12.36C10.59 12.24 10.7167 12.08 10.81 11.88C10.9033 11.6733 10.95 11.45 10.95 11.21C10.95 10.9633 10.8967 10.7433 10.79 10.55C10.6833 10.35 10.5433 10.19 10.37 10.07C10.2033 9.95 10.02 9.89 9.82 9.89H7.92V12.54ZM17.0813 15.01V16H13.2613V15.01H14.6813V11.52C14.6213 11.6 14.528 11.6833 14.4013 11.77C14.2747 11.8567 14.1313 11.94 13.9713 12.02C13.818 12.0933 13.6613 12.1533 13.5013 12.2C13.3413 12.2467 13.1947 12.27 13.0613 12.27V11.24C13.1947 11.24 13.348 11.2 13.5213 11.12C13.6947 11.04 13.8647 10.9467 14.0313 10.84C14.2047 10.7267 14.3513 10.62 14.4713 10.52C14.5913 10.4133 14.6613 10.3367 14.6813 10.29H15.8113V15.01H17.0813Z" fill="white"/>
</svg>
