<svg width="17" height="18" viewBox="0 0 17 18" fill="none" xmlns="http://www.w3.org/2000/svg">
<rect x="0.583252" y="1.25" width="15.5" height="15.5" rx="7.75" stroke="#BBBBBB" stroke-width="0.5"/>
<path d="M3.08306 6.49866C3.08306 7.18927 3.64305 7.74859 4.333 7.74859C5.02354 7.74859 5.58294 7.18919 5.58294 6.49866C5.58294 5.80812 5.02354 5.24872 4.333 5.24872C3.64305 5.24872 3.08306 5.80804 3.08306 6.49866ZM3.08306 10.9984C3.08306 11.689 3.64305 12.2483 4.333 12.2483C5.02354 12.2483 5.58294 11.6889 5.58294 10.9984C5.58294 10.3078 5.02354 9.74844 4.333 9.74844C3.64305 9.74844 3.08306 10.3078 3.08306 10.9984ZM7.08281 8.9985C7.08281 9.68912 7.6428 10.2484 8.33275 10.2484C9.02329 10.2484 9.58269 9.68904 9.58269 8.9985C9.58269 8.30796 9.02329 7.74856 8.33275 7.74856C7.6428 7.74856 7.08281 8.30788 7.08281 8.9985ZM7.08281 3.99881C7.08281 4.68943 7.6428 5.24875 8.33275 5.24875C9.02329 5.24875 9.58269 4.68935 9.58269 3.99881C9.58269 3.30828 9.02329 2.74888 8.33275 2.74888C7.6428 2.74888 7.08281 3.30819 7.08281 3.99881ZM11.0826 6.49866C11.0826 7.18927 11.6425 7.74859 12.3325 7.74859C13.023 7.74859 13.5824 7.18919 13.5824 6.49866C13.5824 5.80812 13.023 5.24872 12.3325 5.24872C11.6425 5.24872 11.0826 5.80804 11.0826 6.49866ZM11.0826 10.9984C11.0826 11.689 11.6425 12.2483 12.3325 12.2483C13.023 12.2483 13.5824 11.6889 13.5824 10.9984C13.5824 10.3078 13.023 9.74844 12.3325 9.74844C11.6425 9.74844 11.0826 10.3078 11.0826 10.9984ZM7.08281 13.9982C7.08281 14.6888 7.6428 15.2481 8.33275 15.2481C9.02329 15.2481 9.58269 14.6887 9.58269 13.9982C9.58269 13.3076 9.02329 12.7482 8.33275 12.7482C7.6428 12.7482 7.08281 13.3076 7.08281 13.9982Z" fill="#BBBBBB" stroke="#BBBBBB" stroke-width="0.5"/>
</svg>
