<svg width="17" height="18" viewBox="0 0 17 18" fill="none" xmlns="http://www.w3.org/2000/svg">
<path d="M8.5 0.75C3.94371 0.75 0.25 4.4437 0.25 9C0.25 13.5563 3.94371 17.25 8.5 17.25C13.0563 17.25 16.75 13.5563 16.75 9C16.75 4.4437 13.0563 0.75 8.5 0.75ZM0.75 9C0.75 4.71985 4.21985 1.25 8.5 1.25C12.7802 1.25 16.25 4.71985 16.25 9C16.25 13.2801 12.7802 16.75 8.5 16.75C4.21985 16.75 0.75 13.2801 0.75 9ZM3.24981 10.9984C3.24981 11.689 3.80979 12.2483 4.49975 12.2483C5.19029 12.2483 5.74969 11.6889 5.74969 10.9984C5.74969 10.3078 5.19029 9.74844 4.49975 9.74844C3.80979 9.74844 3.24981 10.3078 3.24981 10.9984ZM3.24981 6.49866C3.24981 7.18927 3.80979 7.74859 4.49975 7.74859C5.19029 7.74859 5.74969 7.18919 5.74969 6.49866C5.74969 5.80812 5.19029 5.24872 4.49975 5.24872C3.80979 5.24872 3.24981 5.80804 3.24981 6.49866ZM7.24956 13.9982C7.24956 14.6888 7.80954 15.2481 8.4995 15.2481C9.19003 15.2481 9.74944 14.6887 9.74944 13.9982C9.74944 13.3076 9.19003 12.7482 8.4995 12.7482C7.80954 12.7482 7.24956 13.3076 7.24956 13.9982ZM7.24956 8.9985C7.24956 9.68912 7.80954 10.2484 8.4995 10.2484C9.19003 10.2484 9.74944 9.68904 9.74944 8.9985C9.74944 8.30796 9.19003 7.74856 8.4995 7.74856C7.80954 7.74856 7.24956 8.30788 7.24956 8.9985ZM7.24956 3.99881C7.24956 4.68943 7.80954 5.24875 8.4995 5.24875C9.19003 5.24875 9.74944 4.68935 9.74944 3.99881C9.74944 3.30828 9.19003 2.74888 8.4995 2.74888C7.80954 2.74888 7.24956 3.30819 7.24956 3.99881ZM11.2493 10.9984C11.2493 11.689 11.8093 12.2483 12.4992 12.2483C13.1898 12.2483 13.7492 11.6889 13.7492 10.9984C13.7492 10.3078 13.1898 9.74844 12.4992 9.74844C11.8093 9.74844 11.2493 10.3078 11.2493 10.9984ZM11.2493 6.49866C11.2493 7.18927 11.8093 7.74859 12.4992 7.74859C13.1898 7.74859 13.7492 7.18919 13.7492 6.49866C13.7492 5.80812 13.1898 5.24872 12.4992 5.24872C11.8093 5.24872 11.2493 5.80804 11.2493 6.49866ZM8.5 1C4.08178 1 0.5 4.58178 0.5 9C0.5 13.4182 4.08178 17 8.5 17C12.9182 17 16.5 13.4182 16.5 9C16.5 4.58178 12.9182 1 8.5 1Z" fill="#BBBBBB" stroke="#BBBBBB" stroke-width="0.5"/>
</svg>
