<svg width="21" height="21" viewBox="0 0 21 21" fill="none" xmlns="http://www.w3.org/2000/svg">
<path d="M5.28588 15.6978L4.58756 14.9995L0.401367 19.0362L1.96867 20.6035L6.00634 16.419L5.29424 15.7069C5.29146 15.704 5.28851 15.7009 5.28588 15.6978Z" fill="black" fill-opacity="0.25"/>
<path d="M5.25425e-06 19.6849C-0.000814378 19.858 0.094263 20.0412 0.282778 20.2296L0.774558 20.7213C1.02225 20.969 1.30961 21.1452 1.72828 20.8272L0.173112 19.2721C0.0600023 19.4126 0.00066096 19.5511 5.25425e-06 19.6849Z" fill="black" fill-opacity="0.25"/>
<path d="M19.9997 8.72041C20.002 7.90112 19.67 7.12298 19.0653 6.52925C19.0648 6.52892 19.0645 6.52843 19.0642 6.5281L16.7689 4.23268C16.7659 4.22973 16.7631 4.22678 16.7605 4.22367L14.4734 1.93661C13.8807 1.33272 13.1055 1.0011 12.2893 1.0011C12.2863 1.0011 12.2839 1.0011 12.2809 1.0011C11.468 1.00339 10.6995 1.33501 10.1171 1.93481L5.36157 6.69039C4.3762 7.64114 3.98163 9.77624 5.0583 11.5717C5.50812 12.3218 5.39468 13.1555 4.72078 14.0496C4.63013 14.1697 4.49718 14.4859 4.69242 14.6426C4.69701 14.6464 4.7016 14.6505 4.7057 14.6546L5.52566 15.4745C5.52861 15.4775 5.53139 15.4804 5.53402 15.4836L6.34562 16.2953C6.34676 16.2965 6.34775 16.2978 6.3489 16.2989L6.34906 16.2991C6.35201 16.3022 6.3548 16.3051 6.35758 16.3086C6.51413 16.5038 6.83051 16.3709 6.95067 16.2802C7.48736 15.8758 8.00259 15.6732 8.49076 15.6732C8.81566 15.6732 9.12892 15.7631 9.42875 15.9429C11.2246 17.0192 13.3595 16.6245 14.3082 15.6418L19.0642 10.886C19.666 10.3018 19.9976 9.53331 19.9997 8.72041ZM14.0497 15.3798C13.4351 15.9865 12.586 16.2474 11.7431 16.2474C11.0262 16.2474 10.3136 16.0588 9.75332 15.7335L9.72332 15.7162C9.43252 15.547 8.94582 15.2639 8.5242 15.2639C8.14733 15.2639 7.56048 15.3285 6.81969 15.8867C6.75478 15.9357 6.66281 15.9296 6.60511 15.8716L5.12977 14.3963C5.07289 14.3394 5.06568 14.2499 5.11256 14.1848C6.0253 12.9134 5.79187 11.9784 5.43533 11.4178C4.60931 10.1193 4.39506 8.11177 5.62483 6.94857L10.3754 2.19807C10.9161 1.64122 11.598 1.33239 12.294 1.33042C12.9927 1.33042 13.6566 1.63073 14.2147 2.19921L16.0719 3.99893C16.0756 4.0027 16.0796 4.0068 16.083 4.0109L18.8035 6.78792C19.3732 7.34739 19.6732 8.01112 19.6712 8.70746C19.6694 9.40283 19.3606 10.0847 18.8019 10.6277L14.0497 15.3798Z" fill="#BFBFBF" stroke="#BFBFBF" stroke-width="0.75"/>
</svg>
