<svg width="22" height="21" viewBox="0 0 22 21" fill="none" xmlns="http://www.w3.org/2000/svg">
<path d="M5.95288 15.6977L5.25455 14.9994L1.06836 19.0362L2.63566 20.6035L6.67333 16.419L5.96124 15.7069C5.95845 15.704 5.9555 15.7008 5.95288 15.6977Z" fill="black" fill-opacity="0.25"/>
<path d="M0.666997 19.6849C0.666178 19.858 0.761255 20.0412 0.949771 20.2296L1.44155 20.7213C1.68924 20.969 1.97661 21.1452 2.39527 20.8272L0.840104 19.2721C0.726994 19.4126 0.667653 19.5511 0.666997 19.6849Z" fill="black" fill-opacity="0.25"/>
<path d="M20.6667 8.72038C20.669 7.90109 20.337 7.12295 19.7323 6.52922C19.7318 6.52889 19.7315 6.5284 19.7312 6.52807L17.4359 4.23265C17.4329 4.2297 17.4301 4.22675 17.4275 4.22364L15.1404 1.93658C14.5477 1.33269 13.7724 1.00107 12.9563 1.00107C12.9533 1.00107 12.9508 1.00107 12.9479 1.00107C12.135 1.00336 11.3665 1.33498 10.7841 1.93478L6.02856 6.69036C5.0432 7.64111 4.64863 9.77621 5.72529 11.5717C6.17511 12.3218 6.06167 13.1555 5.38777 14.0495C5.29712 14.1697 5.16417 14.4859 5.35941 14.6426C5.364 14.6464 5.36859 14.6505 5.37269 14.6546L6.19265 15.4745C6.1956 15.4775 6.19839 15.4804 6.20101 15.4835L7.01261 16.2953C7.01376 16.2964 7.01474 16.2977 7.01589 16.2989L7.01605 16.2991C7.019 16.3022 7.02179 16.3051 7.02458 16.3086C7.18113 16.5038 7.4975 16.3709 7.61766 16.2802C8.15436 15.8758 8.66958 15.6732 9.15775 15.6732C9.48265 15.6732 9.79592 15.763 10.0957 15.9428C11.8916 17.0192 14.0265 16.6244 14.9752 15.6417L19.7312 10.886C20.3329 10.3018 20.6646 9.53328 20.6667 8.72038ZM14.7167 15.3798C14.1021 15.9865 13.253 16.2474 12.4101 16.2474C11.6932 16.2474 10.9806 16.0587 10.4203 15.7335L10.3903 15.7161C10.0995 15.547 9.61281 15.2639 9.19119 15.2639C8.81432 15.2639 8.22747 15.3285 7.48668 15.8866C7.42177 15.9356 7.32981 15.9296 7.2721 15.8715L5.79677 14.3962C5.73988 14.3393 5.73267 14.2498 5.77955 14.1848C6.6923 12.9134 6.45887 11.9784 6.10233 11.4177C5.2763 10.1193 5.06205 8.11174 6.29182 6.94854L11.0424 2.19804C11.583 1.64119 12.265 1.33236 12.961 1.33039C13.6597 1.33039 14.3236 1.6307 14.8817 2.19918L16.7389 3.9989C16.7426 4.00267 16.7466 4.00677 16.75 4.01087L19.4705 6.78789C20.0402 7.34736 20.3402 8.01109 20.3382 8.70743C20.3364 9.4028 20.0275 10.0847 19.4689 10.6276L14.7167 15.3798Z" fill="#BFBFBF" stroke="#BFBFBF" stroke-width="0.75"/>
</svg>
