<svg width="21" height="21" viewBox="0 0 21 21" fill="none" xmlns="http://www.w3.org/2000/svg">
<path d="M5.28588 15.6977L4.58756 14.9994L0.401367 19.0362L1.96867 20.6035L6.00634 16.419L5.29424 15.7069C5.29146 15.704 5.28851 15.7009 5.28588 15.6977Z" fill="#187AE8"/>
<path d="M5.25425e-06 19.6848C-0.000814378 19.8579 0.094263 20.0412 0.282778 20.2296L0.774558 20.7213C1.02225 20.969 1.30961 21.1452 1.72828 20.8272L0.173112 19.2721C0.0600023 19.4126 0.00066096 19.5511 5.25425e-06 19.6848Z" fill="#187AE8"/>
<path d="M19.9997 8.7204C20.002 7.90111 19.67 7.12297 19.0653 6.52923C19.0648 6.52891 19.0645 6.52842 19.0642 6.52809L16.7689 4.23267C16.7659 4.22972 16.7631 4.22677 16.7605 4.22365L14.4734 1.93659C13.8807 1.3327 13.1055 1.00108 12.2893 1.00108C12.2863 1.00108 12.2839 1.00108 12.2809 1.00108C11.468 1.00338 10.6995 1.335 10.1171 1.93479L5.36157 6.69037C4.3762 7.64113 3.98163 9.77623 5.0583 11.5717C5.50812 12.3218 5.39468 13.1555 4.72078 14.0495C4.63013 14.1697 4.49718 14.4859 4.69242 14.6426C4.69701 14.6464 4.7016 14.6505 4.7057 14.6546L5.52566 15.4745C5.52861 15.4775 5.53139 15.4804 5.53402 15.4835L6.34562 16.2953C6.34676 16.2964 6.34775 16.2978 6.3489 16.2989L6.34906 16.2991C6.35201 16.3022 6.3548 16.3051 6.35758 16.3086C6.51413 16.5038 6.83051 16.3709 6.95067 16.2802C7.48736 15.8758 8.00259 15.6732 8.49076 15.6732C8.81566 15.6732 9.12892 15.763 9.42875 15.9429C11.2246 17.0192 13.3595 16.6245 14.3082 15.6417L19.0642 10.886C19.666 10.3018 19.9976 9.53329 19.9997 8.7204ZM14.0497 15.3798C13.4351 15.9865 12.586 16.2474 11.7431 16.2474C11.0262 16.2474 10.3136 16.0588 9.75332 15.7335L9.72332 15.7162C9.43252 15.547 8.94582 15.2639 8.5242 15.2639C8.14733 15.2639 7.56048 15.3285 6.81969 15.8866C6.75478 15.9357 6.66281 15.9296 6.60511 15.8716L5.12977 14.3962C5.07289 14.3394 5.06568 14.2499 5.11256 14.1848C6.0253 12.9134 5.79187 11.9784 5.43533 11.4178C4.60931 10.1193 4.39506 8.11175 5.62483 6.94855L10.3754 2.19805C10.9161 1.6412 11.598 1.33237 12.294 1.33041C12.9927 1.33041 13.6566 1.63071 14.2147 2.1992L16.0719 3.99891C16.0756 4.00268 16.0796 4.00678 16.083 4.01088L18.8035 6.78791C19.3732 7.34738 19.6732 8.0111 19.6712 8.70745C19.6694 9.40281 19.3606 10.0847 18.8019 10.6276L14.0497 15.3798Z" fill="#187AE8" stroke="#187AE8" stroke-width="0.75"/>
<path d="M13.97 7.76C13.9233 7.71333 13.8367 7.65 13.71 7.57C13.59 7.49 13.44 7.41333 13.26 7.34C13.0867 7.26667 12.8967 7.20333 12.69 7.15C12.4833 7.09 12.2733 7.06 12.06 7.06C11.6867 7.06 11.4033 7.13 11.21 7.27C11.0233 7.41 10.93 7.60667 10.93 7.86C10.93 8.05333 10.99 8.20667 11.11 8.32C11.23 8.43333 11.41 8.53 11.65 8.61C11.89 8.69 12.19 8.77667 12.55 8.87C13.0167 8.98333 13.42 9.12333 13.76 9.29C14.1067 9.45 14.37 9.66333 14.55 9.93C14.7367 10.19 14.83 10.5367 14.83 10.97C14.83 11.35 14.76 11.6767 14.62 11.95C14.48 12.2167 14.2867 12.4333 14.04 12.6C13.7933 12.7667 13.5133 12.89 13.2 12.97C12.8867 13.0433 12.5533 13.08 12.2 13.08C11.8467 13.08 11.4933 13.0433 11.14 12.97C10.7867 12.8967 10.4467 12.7933 10.12 12.66C9.79333 12.52 9.49333 12.3533 9.22 12.16L9.83 10.97C9.89 11.03 9.99667 11.11 10.15 11.21C10.3033 11.3033 10.49 11.4 10.71 11.5C10.93 11.5933 11.17 11.6733 11.43 11.74C11.69 11.8067 11.9533 11.84 12.22 11.84C12.5933 11.84 12.8767 11.7767 13.07 11.65C13.2633 11.5233 13.36 11.3433 13.36 11.11C13.36 10.8967 13.2833 10.73 13.13 10.61C12.9767 10.49 12.7633 10.3867 12.49 10.3C12.2167 10.2067 11.8933 10.1067 11.52 10C11.0733 9.87333 10.7 9.73333 10.4 9.58C10.1 9.42 9.87667 9.22 9.73 8.98C9.58333 8.74 9.51 8.44 9.51 8.08C9.51 7.59333 9.62333 7.18667 9.85 6.86C10.0833 6.52667 10.3967 6.27667 10.79 6.11C11.1833 5.93667 11.62 5.85 12.1 5.85C12.4333 5.85 12.7467 5.88667 13.04 5.96C13.34 6.03333 13.62 6.13 13.88 6.25C14.14 6.37 14.3733 6.5 14.58 6.64L13.97 7.76Z" fill="#187AE8"/>
</svg>
