<svg width="21" height="21" viewBox="0 0 21 21" fill="none" xmlns="http://www.w3.org/2000/svg">
<path d="M5.28686 15.6978L4.58853 14.9995L0.402344 19.0363L1.96964 20.6036L6.00732 16.4191L5.29522 15.707C5.29243 15.7041 5.28948 15.7009 5.28686 15.6978Z" fill="#187AE8"/>
<path d="M5.25425e-06 19.685C-0.000814378 19.8581 0.094263 20.0413 0.282778 20.2297L0.774558 20.7215C1.02225 20.9692 1.30961 21.1454 1.72828 20.8274L0.173112 19.2722C0.0600023 19.4127 0.00066096 19.5512 5.25425e-06 19.685Z" fill="#187AE8"/>
<path d="M19.9987 8.72054C20.001 7.90125 19.6691 7.1231 19.0643 6.52937C19.0639 6.52904 19.0635 6.52855 19.0632 6.52822L16.7679 4.23281C16.765 4.22986 16.7622 4.2269 16.7595 4.22379L14.4724 1.93673C13.8797 1.33284 13.1045 1.00122 12.2883 1.00122C12.2853 1.00122 12.2829 1.00122 12.2799 1.00122C11.467 1.00352 10.6985 1.33513 10.1161 1.93493L5.36059 6.69051C4.37523 7.64126 3.98066 9.77637 5.05733 11.5718C5.50714 12.3219 5.3937 13.1556 4.7198 14.0497C4.62915 14.1698 4.49621 14.486 4.69144 14.6428C4.69603 14.6465 4.70062 14.6506 4.70472 14.6547L5.52468 15.4747C5.52763 15.4776 5.53042 15.4806 5.53304 15.4837L6.34464 16.2954C6.34579 16.2966 6.34677 16.2979 6.34792 16.299L6.34808 16.2992C6.35103 16.3023 6.35382 16.3053 6.35661 16.3087C6.51316 16.5039 6.82954 16.371 6.94969 16.2804C7.48639 15.876 8.00161 15.6733 8.48978 15.6733C8.81468 15.6733 9.12795 15.7632 9.42777 15.943C11.2236 17.0193 13.3586 16.6246 14.3072 15.6419L19.0632 10.8861C19.665 10.3019 19.9966 9.53343 19.9987 8.72054ZM14.0487 15.3799C13.4341 15.9866 12.585 16.2476 11.7421 16.2476C11.0252 16.2476 10.3126 16.0589 9.75234 15.7337L9.72234 15.7163C9.43154 15.5471 8.94484 15.264 8.52322 15.264C8.14636 15.264 7.5595 15.3286 6.81872 15.8868C6.7538 15.9358 6.66184 15.9297 6.60414 15.8717L5.1288 14.3964C5.07192 14.3395 5.0647 14.25 5.11159 14.1849C6.02433 12.9135 5.7909 11.9785 5.43436 11.4179C4.60833 10.1195 4.39408 8.11189 5.62386 6.94869L10.3744 2.19819C10.9151 1.64134 11.597 1.33251 12.293 1.33054C12.9917 1.33054 13.6556 1.63085 14.2138 2.19934L16.0709 3.99905C16.0747 4.00282 16.0786 4.00692 16.082 4.01102L18.8026 6.78804C19.3722 7.34751 19.6722 8.01124 19.6702 8.70759C19.6684 9.40295 19.3596 10.0849 18.8009 10.6278L14.0487 15.3799Z" fill="#187AE8" stroke="#187AE8" stroke-width="0.75"/>
</svg>
