<svg width="20" height="20" viewBox="0 0 20 20" fill="none" xmlns="http://www.w3.org/2000/svg">
<g clip-path="url(#clip0_1678_12298)">
<path d="M10 0.898438C4.9775 0.898438 0.898438 4.9775 0.898438 10C0.898438 15.0225 4.9775 19.1016 10 19.1016C15.0225 19.1016 19.1016 15.0225 19.1016 10C19.1016 4.9775 15.0225 0.898438 10 0.898438ZM10 1.60156C14.6425 1.60156 18.3984 5.3575 18.3984 10C18.3984 14.6425 14.6425 18.3984 10 18.3984C5.3575 18.3984 1.60156 14.6425 1.60156 10C1.60156 5.3575 5.3575 1.60156 10 1.60156ZM6.25906 3.67891C5.45953 3.68293 4.27273 4.84598 3.42332 6.52914C2.45262 8.45281 2.29027 10.3274 3.0607 10.7162C3.83109 11.1049 4.0293 9.22047 5 7.29684C5.9707 5.37312 7.34633 4.13871 6.57594 3.74996C6.47961 3.70137 6.37328 3.67832 6.25906 3.67891Z" fill="black" fill-opacity="0.25"/>
</g>
<path d="M11.97 8.76C11.9233 8.71333 11.8367 8.65 11.71 8.57C11.59 8.49 11.44 8.41333 11.26 8.34C11.0867 8.26667 10.8967 8.20333 10.69 8.15C10.4833 8.09 10.2733 8.06 10.06 8.06C9.68667 8.06 9.40333 8.13 9.21 8.27C9.02333 8.41 8.93 8.60667 8.93 8.86C8.93 9.05333 8.99 9.20667 9.11 9.32C9.23 9.43333 9.41 9.53 9.65 9.61C9.89 9.69 10.19 9.77667 10.55 9.87C11.0167 9.98333 11.42 10.1233 11.76 10.29C12.1067 10.45 12.37 10.6633 12.55 10.93C12.7367 11.19 12.83 11.5367 12.83 11.97C12.83 12.35 12.76 12.6767 12.62 12.95C12.48 13.2167 12.2867 13.4333 12.04 13.6C11.7933 13.7667 11.5133 13.89 11.2 13.97C10.8867 14.0433 10.5533 14.08 10.2 14.08C9.84667 14.08 9.49333 14.0433 9.14 13.97C8.78667 13.8967 8.44667 13.7933 8.12 13.66C7.79333 13.52 7.49333 13.3533 7.22 13.16L7.83 11.97C7.89 12.03 7.99667 12.11 8.15 12.21C8.30333 12.3033 8.49 12.4 8.71 12.5C8.93 12.5933 9.17 12.6733 9.43 12.74C9.69 12.8067 9.95333 12.84 10.22 12.84C10.5933 12.84 10.8767 12.7767 11.07 12.65C11.2633 12.5233 11.36 12.3433 11.36 12.11C11.36 11.8967 11.2833 11.73 11.13 11.61C10.9767 11.49 10.7633 11.3867 10.49 11.3C10.2167 11.2067 9.89333 11.1067 9.52 11C9.07333 10.8733 8.7 10.7333 8.4 10.58C8.1 10.42 7.87667 10.22 7.73 9.98C7.58333 9.74 7.51 9.44 7.51 9.08C7.51 8.59333 7.62333 8.18667 7.85 7.86C8.08333 7.52667 8.39667 7.27667 8.79 7.11C9.18333 6.93667 9.62 6.85 10.1 6.85C10.4333 6.85 10.7467 6.88667 11.04 6.96C11.34 7.03333 11.62 7.13 11.88 7.25C12.14 7.37 12.3733 7.5 12.58 7.64L11.97 8.76Z" fill="black" fill-opacity="0.25"/>
<defs>
<clipPath id="clip0_1678_12298">
<rect width="20" height="20" fill="white"/>
</clipPath>
</defs>
</svg>
