<svg width="20" height="20" viewBox="0 0 20 20" fill="none" xmlns="http://www.w3.org/2000/svg">
<line x1="4.67853" y1="17.0695" x2="15.2254" y2="2.30386"  stroke="#228B22"  stroke-width="1.07812"/>
<path fill-rule="evenodd" clip-rule="evenodd" d="M12.457 4.4213C12.3434 4.40059 12.2264 4.38977 12.1069 4.38977H8.71094C7.6352 4.38977 6.75781 5.26715 6.75781 6.34289V11.3058C6.75781 11.5552 6.89082 11.7735 7.08976 11.8937L8.13051 10.4448V6.72992C8.13059 6.68684 8.14774 6.64555 8.17821 6.61508C8.20867 6.58462 8.24996 6.56747 8.29305 6.56738H8.31852C8.36159 6.56748 8.40287 6.58463 8.43333 6.61508C8.46379 6.64553 8.48095 6.68681 8.48105 6.72988V9.95673L12.457 4.4213ZM8.48105 13.1707V18.6159C8.48105 19.0998 8.87336 19.4922 9.35734 19.4922C9.84129 19.4922 10.2336 19.0998 10.2336 18.6159V12.6355C10.2337 12.5925 10.2509 12.5512 10.2813 12.5207C10.3118 12.4903 10.3531 12.4731 10.3962 12.473H10.4216C10.4647 12.4731 10.506 12.4903 10.5365 12.5207C10.5669 12.5512 10.5841 12.5925 10.5842 12.6355V18.6159C10.5842 19.0998 10.9765 19.4922 11.4605 19.4922C11.9444 19.4922 12.3368 19.0998 12.3368 18.6159L12.3367 7.80281L8.48105 13.1707ZM12.6873 7.31473V11.3058C12.6873 11.6849 12.9946 11.9922 13.3737 11.9922C13.7527 11.9922 14.06 11.6849 14.06 11.3058V6.34289C14.06 6.08218 14.0085 5.83312 13.9151 5.60537L12.6873 7.31473ZM12.0914 2.19031C12.0914 1.26109 11.3381 0.507812 10.4089 0.507812C9.47969 0.507812 8.72641 1.26109 8.72641 2.19031C8.72641 3.11953 9.47969 3.87281 10.4089 3.87281C11.3381 3.87281 12.0914 3.11953 12.0914 2.19031Z" fill="#228B22
"/>
</svg>
