<svg width="20" height="20" viewBox="0 0 20 20" fill="none" xmlns="http://www.w3.org/2000/svg">
<path d="M9.41826 18.0124C9.60275 18.12 9.695 18.1739 9.82519 18.2018C9.92622 18.2234 10.0736 18.2234 10.1747 18.2018C10.3048 18.1739 10.3971 18.12 10.5816 18.0124C12.205 17.0653 16.6666 14.0904 16.6666 10V6.83335C16.6666 5.93844 16.6666 5.49098 16.5286 5.17335C16.3884 4.85052 16.2487 4.67878 15.9612 4.47577C15.6783 4.27604 15.1238 4.1607 14.0147 3.93003C12.7923 3.6758 11.8535 3.21671 10.9952 2.55278C10.5837 2.23441 10.3779 2.07522 10.2169 2.0318C10.047 1.98598 9.95289 1.98598 9.78297 2.0318C9.62194 2.07522 9.41616 2.23441 9.0046 2.55278C8.14635 3.21671 7.20758 3.6758 5.98517 3.93003C4.87606 4.1607 4.32151 4.27604 4.03862 4.47577C3.7511 4.67878 3.61141 4.85052 3.4712 5.17335C3.33325 5.49098 3.33325 5.93844 3.33325 6.83335V10C3.33325 14.0904 7.79489 17.0653 9.41826 18.0124Z" fill="#797979" stroke="#797979" stroke-width="2" stroke-linecap="round" stroke-linejoin="round"/>
<path d="M10.808 7.112H8.92V12H8.016V7.112H6.12V6.32H10.808V7.112ZM14.076 11.208V12H11.02V11.208H12.156V8.416C12.108 8.48 12.0333 8.54667 11.932 8.616C11.8307 8.68533 11.716 8.752 11.588 8.816C11.4653 8.87467 11.34 8.92267 11.212 8.96C11.084 8.99733 10.9667 9.016 10.86 9.016V8.192C10.9667 8.192 11.0893 8.16 11.228 8.096C11.3667 8.032 11.5027 7.95733 11.636 7.872C11.7747 7.78133 11.892 7.696 11.988 7.616C12.084 7.53067 12.14 7.46933 12.156 7.432H13.06V11.208H14.076Z" fill="white"/>
</svg>
