<svg width="20" height="20" viewBox="0 0 20 20" fill="none" xmlns="http://www.w3.org/2000/svg">
<path d="M9.41802 18.0124C9.60251 18.12 9.69476 18.1738 9.82494 18.2018C9.92597 18.2234 10.0734 18.2234 10.1744 18.2018C10.3046 18.1738 10.3968 18.12 10.5813 18.0124C12.2047 17.0653 16.6663 14.0904 16.6663 10V6.83333C16.6663 5.93842 16.6663 5.49097 16.5284 5.17333C16.3882 4.8505 16.2485 4.67876 15.961 4.47576C15.6781 4.27602 15.1235 4.16069 14.0144 3.93002C12.792 3.67578 11.8532 3.2167 10.995 2.55277C10.5834 2.23439 10.3777 2.0752 10.2166 2.03178C10.0467 1.98597 9.95264 1.98597 9.78273 2.03178C9.6217 2.0752 9.41592 2.23439 9.00436 2.55277C8.14611 3.2167 7.20734 3.67578 5.98492 3.93002C4.87582 4.16069 4.32127 4.27602 4.03838 4.47576C3.75086 4.67876 3.61116 4.8505 3.47096 5.17333C3.33301 5.49097 3.33301 5.93842 3.33301 6.83333V10C3.33301 14.0904 7.79464 17.0653 9.41802 18.0124Z" fill="#BBBBBB" stroke="#BBBBBB" stroke-width="2" stroke-linecap="round" stroke-linejoin="round"/>
<path d="M9.808 7.112H7.92V12H7.016V7.112H5.12V6.32H9.808V7.112ZM9.93719 12C9.93719 11.776 9.95585 11.5707 9.99319 11.384C10.0305 11.192 10.0945 11.0107 10.1852 10.84C10.2812 10.6693 10.4119 10.5093 10.5772 10.36C10.7479 10.2053 10.9639 10.0587 11.2252 9.92C11.4119 9.81333 11.5879 9.72 11.7532 9.64C11.9185 9.55467 12.0652 9.472 12.1932 9.392C12.3212 9.30667 12.4199 9.216 12.4892 9.12C12.5639 9.024 12.6012 8.91467 12.6012 8.792C12.6012 8.67467 12.5692 8.56533 12.5052 8.464C12.4412 8.36267 12.3452 8.28267 12.2172 8.224C12.0892 8.16 11.9345 8.128 11.7532 8.128C11.6092 8.128 11.4759 8.14667 11.3532 8.184C11.2359 8.22133 11.1265 8.272 11.0252 8.336C10.9292 8.39467 10.8412 8.46133 10.7612 8.536C10.6812 8.60533 10.6119 8.67467 10.5532 8.744L10.0012 8.112C10.0545 8.048 10.1372 7.976 10.2492 7.896C10.3665 7.81067 10.5052 7.728 10.6652 7.648C10.8305 7.56267 11.0172 7.49333 11.2252 7.44C11.4332 7.38133 11.6599 7.352 11.9052 7.352C12.2519 7.352 12.5479 7.41067 12.7932 7.528C13.0385 7.64 13.2252 7.79733 13.3532 8C13.4865 8.19733 13.5532 8.42133 13.5532 8.672C13.5532 8.86933 13.5132 9.04267 13.4332 9.192C13.3585 9.34133 13.2599 9.47467 13.1372 9.592C13.0145 9.704 12.8839 9.80267 12.7452 9.888C12.6119 9.968 12.4865 10.04 12.3692 10.104C12.1612 10.2053 11.9799 10.2987 11.8252 10.384C11.6759 10.4693 11.5479 10.5547 11.4412 10.64C11.3345 10.72 11.2465 10.8053 11.1772 10.896C11.1079 10.9813 11.0492 11.0853 11.0012 11.208H13.6412V12H9.93719Z" fill="white"/>
</svg>
