<svg width="17" height="16" viewBox="0 0 17 16" fill="none" xmlns="http://www.w3.org/2000/svg">
<path d="M2.11342 8.47545C2.02262 8.33169 1.97723 8.25981 1.95182 8.14894C1.93273 8.06566 1.93273 7.93433 1.95182 7.85105C1.97723 7.74018 2.02262 7.6683 2.11341 7.52454C2.86369 6.33656 5.09693 3.33333 8.50027 3.33333C11.9036 3.33333 14.1369 6.33656 14.8871 7.52454C14.9779 7.6683 15.0233 7.74018 15.0487 7.85105C15.0678 7.93433 15.0678 8.06566 15.0487 8.14894C15.0233 8.25981 14.9779 8.33169 14.8871 8.47545C14.1369 9.66343 11.9036 12.6667 8.50027 12.6667C5.09693 12.6667 2.86369 9.66344 2.11342 8.47545Z" stroke="white" stroke-width="1.5" stroke-linecap="round" stroke-linejoin="round"/>
<path d="M8.50027 10C9.60484 10 10.5003 9.10456 10.5003 8C10.5003 6.89543 9.60484 5.99999 8.50027 5.99999C7.3957 5.99999 6.50027 6.89543 6.50027 8C6.50027 9.10456 7.3957 10 8.50027 10Z" stroke="white" stroke-width="1.5" stroke-linecap="round" stroke-linejoin="round"/>
</svg>
