<svg width="15" height="16" viewBox="0 0 15 16" fill="none" xmlns="http://www.w3.org/2000/svg">
<path d="M1.41671 12.0771C1.44734 11.8014 1.46265 11.6636 1.50436 11.5348C1.54136 11.4205 1.59364 11.3117 1.65977 11.2114C1.73432 11.0984 1.83238 11.0003 2.0285 10.8042L10.8327 2.00001C11.5691 1.26363 12.763 1.26363 13.4994 2.00001C14.2357 2.73639 14.2357 3.9303 13.4994 4.66668L4.69517 13.4709C4.49905 13.667 4.40099 13.765 4.28794 13.8396C4.18765 13.9057 4.07888 13.958 3.96458 13.995C3.83575 14.0367 3.69792 14.052 3.42226 14.0826L1.16602 14.3333L1.41671 12.0771Z" stroke="white" stroke-width="1.5" stroke-linecap="round" stroke-linejoin="round"/>
</svg>
